HIERARCHY
ROOT pelvis
{
  OFFSET 0 100 0
  CHANNELS 6 Xposition Yposition Zposition Zrotation Xrotation Yrotation
  JOINT pelvis_right_femur
  {
    OFFSET -10.78128 -3.44521 -0.5502486
    CHANNELS 3 Zrotation Xrotation Yrotation
    JOINT right_femur_tibia
    {
      OFFSET -0.8047443 -44.0398 -0.1307829
      CHANNELS 3 Zrotation Xrotation Yrotation
      JOINT right_tibia_foot
      {
        OFFSET 3.006224 -47.83518 -5
        CHANNELS 3 Zrotation Xrotation Yrotation
        End Site
        {
          OFFSET 0 -5 15
        }
      }
    }
  }
  JOINT pelvis_left_femur
  {
    OFFSET 10.78128 -3.44521 -0.5502486
    CHANNELS 3 Zrotation Xrotation Yrotation
    JOINT left_femur_tibia
    {
      OFFSET 0.8047443 -44.0398 -0.1307829
      CHANNELS 3 Zrotation Xrotation Yrotation
      JOINT left_tibia_foot
      {
        OFFSET -4.370144 -48.10324 -4.275266
        CHANNELS 3 Zrotation Xrotation Yrotation
        End Site
        {
          OFFSET 0 -5 15
        }
      }
    }
  }
  JOINT pelvis_spine1
  {
    OFFSET 0 6.468898 -3.129235
    CHANNELS 3 Zrotation Xrotation Yrotation
    JOINT spine1
    {
      OFFSET 0 23.15396 4.99043
      CHANNELS 3 Zrotation Xrotation Yrotation
      JOINT spine2
      {
        OFFSET 0 20.79997 -5.064912
        CHANNELS 3 Zrotation Xrotation Yrotation
        JOINT neck
        {
          OFFSET 0 14.38658 9.616178
          CHANNELS 3 Zrotation Xrotation Yrotation
          End Site
          {
            OFFSET 0 20 0
          }
        }
      }
      JOINT right_manubrium
      {
        OFFSET -5.722621 16.35077 3.967754
        CHANNELS 3 Zrotation Xrotation Yrotation
        JOINT right_clavicle
        {
          OFFSET -13.16364 1.694482 -4.693211
          CHANNELS 3 Zrotation Xrotation Yrotation
          JOINT right_humerus
          {
            OFFSET -28.5034 -0.3100689 -2.792744
            CHANNELS 3 Zrotation Xrotation Yrotation
            JOINT right_radius
            {
              OFFSET -25.15693 0.02248979 -1.271978
              CHANNELS 3 Zrotation Xrotation Yrotation
              End Site
              {
                OFFSET -15 0 0
              }
            }
          }
        }
      }
      JOINT left_manubrium
      {
        OFFSET 5.722621 16.35077 3.967754
        CHANNELS 3 Zrotation Xrotation Yrotation
        JOINT left_clavicle
        {
          OFFSET 13.16364 1.694482 -4.693211
          CHANNELS 3 Zrotation Xrotation Yrotation
          JOINT left_humerus
          {
            OFFSET 29.39168 -1.063119 -2.237045
            CHANNELS 3 Zrotation Xrotation Yrotation
            JOINT left_radius
            {
              OFFSET 24.59957 -0.9528479 0.9047498
              CHANNELS 3 Zrotation Xrotation Yrotation
              End Site
              {
                OFFSET 15 -0 -0
              }
            }
          }
        }
      }
    }
  }
}
MOTION
Frames: 21
Frame Time: 0.0416666666667
0 103.5113 0 2.244154 -1.18308 0.2933923 1.121505 -9.610296 8.661575 -0 33.75998 -0 -5.244323 -17.96626 -2.173172 -8.094848 9.911448 -23.39271 -0 5.531221 -0 7.556224 -15.98898 26.45669 -4.348558 -5.106236 5.009138 1.999474 9.20936 -7.714578 0.821103 22.83713 7.166942 3.246921 -23.05052 8.77454 6.356074 -19.72569 11.57237 86.33584 35.96407 -19.79066 -0 0 16.19517 -7.618007 8.272409 4.637643 5.486915 -19.48051 -1.701009 -94.74806 29.72907 22.87705 0 0 -15.99135 3.493416 17.8822 9.561494
0.3362882 104.1122 1.452241 2.211537 -1.061675 0.5273331 1.159246 -9.634733 8.453949 -0 32.34809 -0 -5.251624 -17.64512 -1.912229 -8.064255 9.688131 -23.07931 -0 6.306751 -0 7.203561 -15.92308 26.08303 -4.296921 -5.021059 5.048728 2.032878 9.176623 -7.683485 0.8138034 22.79455 7.169905 3.258554 -23.07706 8.741299 6.312621 -19.61981 11.56628 86.36278 35.97487 -19.81859 -0 0 16.00858 -7.738877 8.358418 4.702656 5.515531 -19.51643 -1.714438 -94.59795 29.65574 22.67072 0 0 -16.21743 3.525378 17.75632 9.550803
0.6790507 104.7053 3.061552 2.169575 -0.9139417 0.7491538 1.198684 -9.58197 8.173813 -0 30.45729 -0 -5.261938 -17.23336 -1.56037 -8.022968 9.326359 -22.6403 -0 7.4006 -0 6.717204 -15.7959 25.57534 -4.226182 -4.908472 5.110079 2.071963 9.136195 -7.635893 0.8024655 22.74177 7.170546 3.271783 -23.10155 8.690198 6.252857 -19.48187 11.56057 86.38924 35.98812 -19.83599 -0 0 15.76664 -7.920556 8.480464 4.801655 5.546331 -19.55862 -1.733999 -94.40103 29.54889 22.40787 0 0 -16.50038 3.562015 17.57999 9.543516
1.030222 105.2903 4.860561 2.125261 -0.758569 0.9566329 1.228942 -9.388373 7.840063 -0 28.22517 -0 -5.274392 -16.77559 -1.141053 -7.972792 8.803273 -22.09293 -0 8.77726 -0 6.122395 -15.58592 24.96603 -4.140412 -4.777852 5.195266 2.109423 9.093509 -7.570555 0.7866475 22.68612 7.166375 3.283928 -23.11354 8.619867 6.180075 -19.32459 11.5575 86.40569 36.00246 -19.82606 -0 0 15.49278 -8.165282 8.634745 4.936792 5.571195 -19.59922 -1.759412 -94.17482 29.41026 22.11778 0 0 -16.80421 3.595636 17.35997 9.545919
1.392159 105.869 6.873448 2.085162 -0.6121109 1.147562 1.241297 -8.996651 7.469736 -0 25.77413 -0 -5.287574 -16.31168 -0.674965 -7.914098 8.098158 -21.45273 -0 10.40558 -0 5.44251 -15.2738 24.28505 -4.043276 -4.637539 5.306189 2.138716 9.053367 -7.486336 0.7659351 22.6342 7.1552 3.292649 -23.10367 8.529077 6.097213 -19.15921 11.55908 86.40361 36.01681 -19.77377 -0 0 15.20784 -8.475209 8.817707 5.110157 5.582868 -19.63117 -1.79043 -93.93482 29.24171 21.82646 0 0 -17.09681 3.619398 17.10224 9.563629
1.767394 106.4447 9.11715 2.054755 -0.4878803 1.319726 1.230166 -8.363223 7.077739 -0 23.20764 -0 -5.29972 -15.8741 -0.1796544 -7.845649 7.197071 -20.73402 -0 12.25585 -0 4.699168 -14.84548 23.55926 -3.937953 -4.494463 5.443987 2.154639 9.019651 -7.38264 0.7400736 22.59128 7.135329 3.296135 -23.06466 8.417172 6.006785 -18.9951 11.56687 86.37635 36.03015 -19.66755 -0 0 14.92903 -8.851187 9.025772 5.323037 5.575653 -19.64886 -1.826784 -93.69375 29.04536 21.55517 0 0 -17.35217 3.628018 16.81228 9.600841
2.158392 107.0219 11.6026 2.038017 -0.3954151 1.470956 1.19332 -7.462286 6.676756 -0 20.60871 -0 -5.308994 -15.48666 0.3305415 -7.764781 6.095506 -19.95016 -0 14.29797 -0 3.912119 -14.29381 22.81201 -3.8271 -4.35398 5.608688 2.153629 8.995188 -7.259659 0.7090459 22.56108 7.105677 3.293197 -22.99182 8.284317 5.910854 -18.83956 11.5818 86.3197 36.04144 -19.50016 -0 0 14.66948 -9.292059 9.255188 5.575481 5.545781 -19.6485 -1.868146 -93.46123 28.82365 21.31967 0 0 -17.55149 3.618132 16.49529 9.659949
2.567358 107.6063 14.33587 2.037339 -0.3405792 1.599235 1.131373 -6.286186 6.277317 -0 18.04097 -0 -5.313697 -15.16448 0.8442224 -7.667891 4.798873 -19.11366 -0 16.50053 -0 3.099079 -13.61881 22.06286 -3.712899 -4.219935 5.799141 2.13374 8.981781 -7.118411 0.6730903 22.54568 7.065778 3.283264 -22.88306 8.131542 5.811072 -18.69784 11.60428 86.23189 36.04953 -19.2688 -0 0 14.43839 -9.794569 9.502035 5.866204 5.491411 -19.6281 -1.914126 -93.24386 28.57926 21.13031 0 0 -17.68303 3.588238 16.15622 9.741574
2.996083 108.2042 17.3192 2.053672 -0.3260748 1.702812 1.046892 -4.843446 5.887974 -0 15.55187 -0 -5.312332 -14.91489 1.352399 -7.551068 3.321699 -18.23607 -0 18.83042 -0 2.275676 -12.82694 21.32777 -3.597154 -4.094905 6.013101 2.094428 8.980358 -6.960673 0.6326822 22.54578 7.015731 3.266299 -22.7385 7.960669 5.708758 -18.57339 11.63417 86.11339 36.05311 -18.97457 -0 0 14.24145 -10.35368 9.762319 6.192726 5.412395 -19.58724 -1.964294 -93.04557 28.31506 20.99255 0 0 -17.74125 3.538372 15.79974 9.844876
3.445849 108.8223 20.55182 2.086788 -0.3520786 1.780317 0.9434534 -3.156308 5.515548 -0 13.1769 -0 -5.303518 -14.73829 1.847806 -7.410756 1.686731 -17.3281 -0 21.25207 -0 1.455636 -11.93036 20.61948 -3.481466 -3.980516 6.247314 2.036261 8.991173 -6.788912 0.5885097 22.56084 6.95615 3.242711 -22.55999 7.774218 5.605004 -18.46814 11.67087 85.96658 36.05072 -18.62197 -0 0 14.08149 -10.96307 10.03211 6.551593 5.309974 -19.52682 -2.018247 -92.86798 28.03402 20.90763 0 0 -17.72559 3.469663 15.43024 9.967979
3.917401 109.4673 24.03059 2.135542 -0.4167946 1.830906 0.8248454 -1.259091 5.16543 -0 10.94434 -0 -5.285765 -14.6286 2.324115 -7.244429 -0.07521169 -16.39987 -0 23.72585 -0 0.6512397 -10.94646 19.94802 -3.36745 -3.877771 6.497499 1.960663 9.014003 -6.606295 0.5414707 22.58931 6.888159 3.213277 -22.35069 7.575379 5.500789 -18.3826 11.71335 85.79561 36.04068 -18.21846 -0 0 13.95898 -11.61559 10.30765 6.938563 5.186533 -19.44876 -2.075692 -92.71062 27.73921 20.87293 0 0 -17.63949 3.38389 15.05174 10.10838
4.410983 110.1458 27.75056 2.198095 -0.5168406 1.854441 0.6944658 0.8021832 4.841897 -0 8.879896 -0 -5.257165 -14.57311 2.775114 -7.05131 -1.92442 -15.46152 -0 26.20561 -0 -0.126011 -9.898159 19.32129 -3.25699 -3.787361 6.758194 1.869732 9.048314 -6.416805 0.4926933 22.62861 6.813443 3.179096 -22.11476 7.368077 5.397101 -18.31604 11.76008 85.60637 36.02103 -17.77441 -0 0 13.87236 -12.30367 10.5855 7.348719 5.04546 -19.35595 -2.136556 -92.57099 27.43393 20.88207 0 0 -17.48964 3.283103 14.66783 10.26331
4.92644 110.8635 31.70539 2.272093 -0.6474921 1.851722 0.5549199 2.969536 4.548424 -0 7.010727 -0 -5.215123 -14.55205 3.193976 -6.83312 -3.811199 -14.52388 -0 28.63622 -0 -0.8647362 -8.814241 18.74561 -3.152467 -3.709921 7.02257 1.766118 9.093402 -6.225372 0.4435634 22.67517 6.734312 3.141567 -21.85709 7.157051 5.295039 -18.26647 11.809 85.4066 35.98941 -17.3032 -0 0 13.81828 -13.01954 10.86256 7.77652 4.89108 -19.25211 -2.201086 -92.44456 27.12173 20.92485 0 0 -17.28554 3.169341 14.28163 10.42997
5.463383 111.6254 35.88773 2.354835 -0.8028991 1.82473 0.4078052 5.173747 4.287882 -0 5.367536 -0 -5.156284 -14.53889 3.572872 -6.594736 -5.675995 -13.59913 -0 30.95273 -0 -1.553347 -7.729263 18.22587 -3.056853 -3.64618 7.282419 1.652925 9.148482 -6.037894 0.3957195 22.72446 6.653691 3.102332 -21.58319 6.947839 5.195853 -18.23077 11.85753 85.20574 35.94313 -16.82103 -0 0 13.79185 -13.75546 11.13618 8.215892 4.728538 -19.14169 -2.269901 -92.32491 26.80649 20.98751 0 0 -17.03905 3.044456 13.89584 10.6057
6.021384 112.4357 40.28947 2.443446 -0.976419 1.776815 0.2537102 7.337885 4.062574 -0 3.983795 -0 -5.076813 -14.50208 3.903166 -6.344415 -7.452466 -12.70092 -0 33.08335 -0 -2.180346 -6.681799 17.7655 -2.973566 -3.596986 7.528565 1.533549 9.212752 -5.860947 0.3509665 22.77131 6.574954 3.063157 -21.29887 6.746503 5.100912 -18.20494 11.90272 85.01441 35.87936 -16.34602 -0 0 13.78706 -14.50383 11.40415 8.66043 4.563529 -19.02966 -2.343932 -92.2043 26.49228 21.0537 0 0 -16.7636 2.910076 13.51267 10.78804
6.600177 113.2969 44.90203 2.535101 -1.161134 1.712724 0.09245121 9.384249 3.874074 -0 2.891894 -0 -4.972999 -14.40881 4.176255 -6.093272 -9.073929 -11.84373 -0 34.95638 -0 -2.735285 -5.710857 17.36611 -2.906056 -3.563161 7.751755 1.411442 9.285417 -5.701157 0.3111022 22.8104 6.501564 3.025747 -21.00997 6.559072 5.01156 -18.18466 11.94155 84.8433 35.79545 -15.89656 -0 0 13.79744 -15.2574 11.66471 9.103774 4.401799 -18.92108 -2.424252 -92.0747 26.18305 21.10645 0 0 -16.47306 2.767668 13.13406 10.9747
7.199829 114.2106 49.71651 2.627234 -1.350467 1.638441 -0.07649957 11.24296 3.722989 -0 2.117777 -0 -4.841946 -14.22962 4.384747 -5.853978 -10.48141 -11.04159 -0 36.50928 -0 -3.209965 -4.85135 17.0274 -2.857272 -3.545298 7.943779 1.289832 9.365701 -5.564402 0.2777036 22.83692 6.436617 2.991537 -20.72188 6.390839 4.928941 -18.16586 11.97135 84.7019 35.68939 -15.48914 -0 0 13.81688 -16.00944 11.91656 9.540066 4.248564 -18.82053 -2.511828 -91.92899 25.88223 21.13048 0 0 -16.18035 2.618658 12.76163 11.16356
7.820879 115.1767 54.72385 2.717712 -1.538707 1.560849 -0.2535219 12.85908 3.608776 -0 1.676486 -0 -4.682034 -13.94225 4.52346 -5.639027 -11.63024 -10.30665 -0 37.69613 -0 -3.599335 -4.130312 16.74716 -2.829223 -3.543558 8.098409 1.171486 9.452831 -5.455143 0.2519559 22.84708 6.382477 2.961543 -20.43924 6.245806 4.853853 -18.14528 11.99011 84.59738 35.56002 -15.13662 -0 0 13.84024 -16.75393 12.1588 9.964327 4.108019 -18.73176 -2.607312 -91.76194 25.59243 21.11405 0 0 -15.89636 2.464524 12.3969 11.35261
8.464416 116.1944 59.9149 2.804897 -1.721302 1.487304 -0.438434 14.19609 3.529715 -0 1.570087 -0 -4.493005 -13.53358 4.589909 -5.459114 -12.49314 -9.647982 -0 38.49127 -0 -3.901774 -3.565005 16.52183 -2.822764 -3.557578 8.211842 1.058589 9.546034 -5.376101 0.2345796 22.83844 6.340588 2.936313 -20.16573 6.126425 4.786673 -18.12073 11.99662 84.53407 35.40713 -14.84738 -0 0 13.86371 -17.4856 12.39085 10.37264 3.983111 -18.65739 -2.710919 -91.57065 25.31525 21.04989 0 0 -15.62934 2.306835 12.04125 11.53993
9.132112 117.2616 65.28049 2.887623 -1.894902 1.425192 -0.6302253 15.2357 3.483028 -0 1.787828 -0 -4.275742 -12.9998 4.584265 -5.321992 -13.05988 -9.070975 -0 38.88905 -0 -4.118858 -3.16295 16.34697 -2.837592 -3.586465 8.282671 0.9527359 9.644512 -5.328276 0.2258567 22.80988 6.311485 2.915965 -19.90406 6.033654 4.727371 -18.09108 11.99049 84.51354 35.23128 -14.62536 -0 0 13.88484 -18.19993 12.61243 10.76211 3.875572 -18.59903 -2.822407 -91.35448 25.05135 20.93505 0 0 -15.38496 2.147229 11.69595 11.72372
9.826191 118.3756 70.81152 2.965076 -2.057242 1.381494 -0.8269053 15.97532 3.465101 -0 2.307244 -0 -4.031908 -12.34536 4.509 -5.231858 -13.33479 -8.577192 -0 38.90153 -0 -4.254946 -2.923113 16.21781 -2.872331 -3.628836 8.311566 0.8550206 9.747415 -5.311158 0.2257195 22.7614 6.294914 2.900269 -19.65604 5.967191 4.675547 -18.05608 11.972 84.53492 35.03357 -14.47073 -0 0 13.90232 -18.89305 12.82344 11.13067 3.786131 -18.55732 -2.941109 -91.11465 24.80064 20.77016 0 0 -15.16687 1.987374 11.36215 11.90234
